<?xml version="1.0" standalone="no"?>
<!DOCTYPE svg PUBLIC "-//W3C//DTD SVG 1.1//EN" "http://www.w3.org/Graphics/SVG/1.1/DTD/svg11.dtd">
<!--Generator: Xara Designer (www.xara.com), SVG filter version: 6.2.0.0-->
<svg stroke-width="0.501" stroke-linejoin="bevel" fill-rule="evenodd" xmlns:xlink="http://www.w3.org/1999/xlink" xmlns="http://www.w3.org/2000/svg" version="1.1" overflow="visible" width="612pt" height="792pt" viewBox="0 0 612 792">
 <defs>
	</defs>
 <g id="Document" fill="none" stroke="black" font-family="Times New Roman" font-size="16" transform="scale(1 -1)">
  <g id="Spread" transform="translate(0 -792)">
   <g id="Layer 1">
    <g id="Group" stroke-linejoin="miter" stroke-linecap="square">
     <path d="M 305.97,114.746 L 305.97,114.868 L 267.914,190.102 L 199.65,190.102 L 199.65,237.97 L 117.716,221.192 L 117.716,350.556 L 174.831,350.556 L 100.311,499.719 L 217.383,499.719 L 206.748,573.524 L 236.856,557.668 L 236.856,677.253 L 305.878,656.709 L 375.144,677.253 L 375.144,557.668 L 405.256,573.524 L 394.617,499.719 L 511.689,499.719 L 437.169,350.556 L 494.284,350.556 L 494.284,221.192 L 412.35,237.97 L 412.35,190.102 L 344.086,190.102 L 306.032,114.868 L 306.032,114.746 L 305.994,114.81 L 305.97,114.746 Z" stroke="none" fill="#1076bc" marker-start="none" marker-end="none"/>
     <g id="Group_1">
      <path d="M 141.291,477.79 L 223.647,319.095 L 305.997,160.405 L 388.353,319.095 L 470.709,477.784 L 306.003,477.79 L 141.291,477.79 Z" fill="#ffffff" stroke-width="17.727" marker-start="none" marker-end="none" stroke-miterlimit="79.8403193612775"/>
      <g id="Group_2">
       <path d="M 210.704,280.516 L 210.704,203.396 L 401.296,203.396 L 401.296,280.516 L 210.704,280.516 Z" stroke="none" fill="#000000" stroke-width="17.727" marker-start="none" marker-end="none" stroke-miterlimit="79.8403193612775"/>
       <g id="Group_3" stroke="#000000" stroke-width="15.2" fill="#000000" stroke-miterlimit="79.8403193612775">
        <path d="M 138.551,328.402 C 138.551,300.076 138.551,271.753 138.551,243.435 C 250.181,265.781 361.813,265.911 473.443,243.461 C 473.443,271.772 473.443,300.087 473.443,328.405 C 361.813,332.822 250.181,332.795 138.551,328.402 C 138.551,328.402 138.551,328.402 138.551,328.402 Z" marker-start="none" marker-end="none"/>
       </g>
       <g id="Group_4" fill-rule="nonzero" stroke="#000000" stroke-width="1.573" fill="#ffffff" stroke-miterlimit="79.8403193612775">
        <g id="Group_5">
         <g id="Group_6">
          <path d="M 203.236,296.261 C 203.717,300.082 204.198,303.892 204.678,307.69 C 204.47,307.681 204.263,307.673 204.056,307.664 C 202.6,304.556 201.142,301.419 199.683,298.252 C 194.593,290.764 189.487,283.021 184.363,274.972 C 182.834,274.785 181.305,274.594 179.776,274.4 C 174.268,281.231 168.775,288.306 163.301,295.684 C 161.764,298.874 160.23,302.101 158.697,305.367 C 158.524,305.357 158.351,305.346 158.178,305.336 C 158.882,301.198 159.587,297.083 160.293,292.99 C 160.327,282.027 160.361,271.064 160.395,260.097 C 155.867,259.3 151.337,258.465 146.804,257.593 C 146.787,279.459 146.769,301.313 146.752,323.175 C 151.066,323.234 155.38,323.292 159.693,323.347 C 166.175,313.776 172.687,304.69 179.223,295.99 C 180.381,293.777 181.54,291.582 182.7,289.403 C 182.836,289.416 182.973,289.428 183.11,289.44 C 184.134,291.87 185.157,294.282 186.179,296.677 C 192.243,306.108 198.282,315.128 204.301,323.827 C 208.579,323.864 212.856,323.9 217.134,323.933 C 217.356,305.365 217.578,286.807 217.8,268.235 C 213.047,267.725 208.29,267.174 203.532,266.582 C 203.433,276.477 203.334,286.369 203.236,296.261 C 203.236,296.261 203.236,296.261 203.236,296.261 Z" marker-start="none" marker-end="none"/>
          <path d="M 228.268,311.342 C 239.282,311.64 250.292,311.874 261.299,312.044 C 261.338,309.705 261.377,307.365 261.416,305.026 C 254.04,304.862 246.661,304.657 239.28,304.411 C 239.327,301.208 239.374,298.004 239.421,294.8 C 246.147,295.114 252.87,295.38 259.591,295.599 C 259.629,293.255 259.668,290.911 259.707,288.567 C 252.983,288.301 246.256,287.977 239.526,287.595 C 239.575,284.233 239.624,280.871 239.673,277.508 C 247.2,278.041 254.722,278.483 262.238,278.835 C 262.277,276.496 262.316,274.157 262.355,271.817 C 251.194,271.22 240.018,270.396 228.829,269.345 C 228.642,283.348 228.455,297.344 228.268,311.342 C 228.268,311.342 228.268,311.342 228.268,311.342 Z" marker-start="none" marker-end="none"/>
          <path d="M 309.446,305.516 C 304.04,305.526 298.633,305.514 293.225,305.48 C 293.423,294.622 293.62,283.764 293.818,272.901 C 290.186,272.845 286.553,272.765 282.918,272.661 C 282.724,283.571 282.529,294.476 282.334,305.381 C 276.897,305.317 271.459,305.231 266.019,305.123 C 265.98,307.452 265.94,309.782 265.901,312.112 C 280.381,312.313 294.853,312.404 309.32,312.386 C 309.362,310.096 309.404,307.806 309.446,305.516 C 309.446,305.516 309.446,305.516 309.446,305.516 Z" marker-start="none" marker-end="none"/>
          <path d="M 314.945,312.374 C 325.939,312.339 336.929,312.24 347.915,312.079 C 347.955,309.745 347.994,307.41 348.033,305.076 C 340.677,305.231 333.318,305.345 325.957,305.419 C 326.012,302.351 326.067,299.283 326.122,296.214 C 332.823,296.12 339.521,295.979 346.216,295.79 C 346.256,293.46 346.295,291.129 346.335,288.799 C 339.642,289.028 332.946,289.2 326.246,289.315 C 326.304,286.095 326.362,282.875 326.42,279.655 C 333.904,279.495 341.383,279.246 348.856,278.907 C 348.895,276.571 348.934,274.235 348.974,271.899 C 337.885,272.473 326.782,272.823 315.665,272.947 C 315.425,286.094 315.185,299.233 314.945,312.374 C 314.945,312.374 314.945,312.374 314.945,312.374 Z" marker-start="none" marker-end="none"/>
          <path d="M 354.99,291.767 C 354.881,298.506 356.832,303.626 360.843,307.191 C 364.859,310.749 370.653,312.496 378.222,312.319 C 382.188,312.224 385.66,311.616 388.634,310.481 C 391.607,309.342 394.085,307.755 396.063,305.71 C 398.041,303.671 399.523,301.232 400.504,298.421 C 401.486,295.605 401.994,292.491 402.031,289.103 C 402.11,281.867 400.13,276.481 396.093,273.033 C 392.06,269.578 386.307,268.309 378.826,268.983 C 374.82,269.342 371.336,270.135 368.363,271.373 C 365.396,272.612 362.935,274.212 360.977,276.188 C 359.023,278.167 357.544,280.464 356.557,283.095 C 355.564,285.722 355.042,288.61 354.99,291.767 C 354.99,291.767 354.99,291.767 354.99,291.767 Z M 366.408,291.28 C 366.44,289.215 366.704,287.299 367.205,285.536 C 367.707,283.772 368.457,282.237 369.449,280.922 C 370.446,279.607 371.709,278.54 373.252,277.727 C 374.79,276.909 376.615,276.417 378.725,276.251 C 382.568,275.948 385.531,276.824 387.611,278.948 C 389.692,281.064 390.698,284.726 390.633,289.908 C 390.607,291.971 390.36,293.908 389.885,295.713 C 389.416,297.514 388.698,299.105 387.73,300.477 C 386.761,301.849 385.51,302.939 383.963,303.738 C 382.423,304.541 380.543,304.976 378.323,305.053 C 374.464,305.186 371.492,304.123 369.41,301.908 C 367.334,299.691 366.334,296.154 366.408,291.28 C 366.408,291.28 366.408,291.28 366.408,291.28 Z" marker-start="none" marker-end="none"/>
          <path d="M 410.87,323.218 C 412.453,323.421 414.157,323.611 415.982,323.787 C 417.813,323.964 419.638,324.101 421.463,324.197 C 423.289,324.293 425.063,324.362 426.786,324.404 C 428.509,324.445 430.094,324.46 431.541,324.448 C 434.919,324.418 438.246,324.129 441.522,323.563 C 444.804,322.997 447.736,322.038 450.324,320.667 C 452.911,319.296 454.982,317.41 456.535,315.006 C 458.089,312.603 458.868,309.598 458.874,306.036 C 458.884,300.748 457.519,296.544 454.784,293.518 C 452.05,290.488 448.385,288.618 443.799,287.846 C 445.482,286.76 447.165,285.66 448.846,284.545 C 454.355,275.95 459.842,266.982 465.301,257.581 C 459.918,258.629 454.532,259.624 449.142,260.566 C 443.685,269.71 438.204,278.454 432.701,286.858 C 430.231,287.473 427.761,288.075 425.289,288.664 C 425.349,280.563 425.409,272.461 425.47,264.357 C 420.788,265.038 416.104,265.679 411.417,266.28 C 411.235,285.266 411.052,304.238 410.87,323.218 C 410.87,323.218 410.87,323.218 410.87,323.218 Z M 432.635,313.916 C 431.19,313.965 429.762,313.983 428.352,313.973 C 426.941,313.962 425.858,313.884 425.102,313.739 C 425.145,308.007 425.188,302.275 425.23,296.542 C 427.221,296.399 429.212,296.253 431.203,296.103 C 435.115,295.806 438.239,296.305 440.565,297.653 C 442.891,298.997 444.048,301.46 444.032,305.007 C 444.021,307.667 443.05,309.801 441.116,311.376 C 439.183,312.953 436.357,313.791 432.635,313.916 C 432.635,313.916 432.635,313.916 432.635,313.916 Z" marker-start="none" marker-end="none"/>
         </g>
        </g>
       </g>
       <text xml:space="preserve" transform="translate(305.268 215.283) scale(1 -1)" font-family="PT Sans Bold" font-size="42.8" stroke="none" fill="#ffa03a" stroke-width="1.1" stroke-miterlimit="79.8403193612775"><tspan x="-85.311" y="0">FANT</tspan><tspan x="11.414" y="0">ASY</tspan></text>
      </g>
      <g id="Group_7" stroke-width="13.299" stroke-miterlimit="79.8403193612775">
       <path d="M 260.609,654.308 L 260.609,563.102" fill="none" stroke="#000000"/>
       <path d="M 351.393,655.575 L 351.393,564.374" fill="none" stroke="#000000"/>
       <path d="M 305.994,635.641 L 305.994,544.428" fill="none" stroke="#000000"/>
       <g id="ClipView">
        <path d="M 376.745,543.329 L 363.232,464.545 L 420.472,408.75 L 341.369,397.256 L 305.993,325.576 L 270.616,397.256 L 191.513,408.75 L 248.753,464.545 L 235.24,543.329 L 305.992,506.132 L 376.745,543.329 Z" stroke="#000000" fill="#ff8200" marker-start="none" marker-end="none"/>
        <clipPath id="ClipPath">
         <path d="M 376.745,543.329 L 363.232,464.545 L 420.472,408.75 L 341.369,397.256 L 305.993,325.576 L 270.616,397.256 L 191.513,408.75 L 248.753,464.545 L 235.24,543.329 L 305.992,506.132 L 376.745,543.329 Z"/>
        </clipPath>
        <g clip-path="url(#ClipPath)">
         <path d="M 68.45,615.913 L 68.45,133.663 L 306.026,133.663 L 306.026,615.913 L 68.45,615.913 Z" stroke="none" stroke-opacity="0.227451" fill="#ffffff" marker-start="none" marker-end="none" fill-opacity="0.227451"/>
        </g>
       </g>
      </g>
     </g>
    </g>
   </g>
  </g>
 </g>
</svg>
